<svg width="132" height="116" viewBox="0 0 132 116" fill="none" xmlns="http://www.w3.org/2000/svg">
<g clip-path="url(#clip0)">
<path fill-rule="evenodd" clip-rule="evenodd" d="M132 81.106H0.0424805V116H100.18V99.231H132V81.106Z" fill="#182B3F"/>
<path d="M7.40687 87.2062H11.9529L11.9666 85.4118H5.22204V94.9252H7.41939L7.40687 87.2062ZM22.2876 88.8646C22.2876 86.7315 20.6911 85.4129 18.1376 85.4129H14.0012V94.9263H16.2122V92.3038H18.1364C20.6899 92.3027 22.2876 90.9841 22.2876 88.8646ZM16.2133 90.5083V87.2062H18.0147C19.3665 87.2062 20.0481 87.8179 20.0481 88.8646C20.0481 89.8977 19.3654 90.5094 18.0147 90.5094H16.2133V90.5083ZM31.2716 94.9252H33.5918L29.3189 85.4118H27.1352L22.8759 94.9252H25.1415L25.9881 92.8861H30.4249L31.2716 94.9252ZM26.6994 91.2152L28.2139 87.5732L29.7297 91.2152H26.6994ZM48.419 94.9252L45.5662 89.951L48.2415 85.4118H45.9076L43.7513 89.2577H42.3311V85.4118H40.1611V89.2577H38.7011L36.5584 85.4118H34.2245L36.9134 89.951L34.047 94.9252H36.5994L38.7421 91.0928H40.1622V94.9252H42.3311V91.0928H43.7239L45.8667 94.9252H48.419ZM51.4676 94.9252H58.2109V96.8962H60.2581V93.1319H58.9199V85.4129H51.5757L51.4664 88.3888C51.3708 91.0521 51.0568 93.0911 49.8153 93.1319H49.4329L49.4193 96.8962H51.4664V94.9252H51.4676ZM53.4191 88.5927L53.4601 87.2062H56.7362V93.1319H52.4633C53.1198 92.3571 53.3372 90.6171 53.4191 88.5927ZM65.694 85.4129L61.4347 94.9263H63.7003L64.5469 92.8872H68.9837L69.8303 94.9263H72.1506L67.8777 85.4129H65.694ZM65.257 91.2152L66.7727 87.5732L68.2885 91.2152H65.257ZM80.6578 89.1637H76.3166V85.4129H74.1056V94.9263H76.3166V91.026H80.6578V94.9263H82.8688V85.4129H80.6578V89.1637ZM90.461 95.0883C92.1258 95.0883 93.505 94.4902 94.4062 93.3891L92.9861 92.0841C92.3443 92.8317 91.5387 93.2123 90.5839 93.2123C88.7962 93.2123 87.5263 91.9617 87.5263 90.1685C87.5263 88.3741 88.7962 87.1246 90.5839 87.1246C91.5398 87.1246 92.3443 87.5052 92.9861 88.2393L94.4062 86.9343C93.505 85.8468 92.127 85.2487 90.4747 85.2487C87.499 85.2487 85.288 87.3002 85.288 90.1685C85.288 93.0367 87.499 95.0883 90.461 95.0883ZM105.138 85.4129H102.804L100.293 89.2588H98.7099V85.4129H96.5126V94.9263H98.7099V91.094H100.238L102.722 94.9263H105.234L102.012 90.0065L105.138 85.4129ZM111.474 85.2498C108.457 85.2498 106.246 87.3421 106.246 90.1696C106.246 92.996 108.457 95.0894 111.474 95.0894C114.477 95.0894 116.702 93.0107 116.702 90.1696C116.703 87.3285 114.478 85.2498 111.474 85.2498ZM111.474 93.2135C109.768 93.2135 108.485 91.9764 108.485 90.1696C108.485 88.3616 109.768 87.1257 111.474 87.1257C113.18 87.1257 114.463 88.3628 114.463 90.1696C114.465 91.9764 113.181 93.2135 111.474 93.2135ZM121.292 93.1591V90.958H125.729V89.2452H121.292V87.1801H126.315V85.4129H119.094V94.9263H126.492V93.1591H121.292ZM9.78173 102.015C6.76508 102.015 4.55408 104.109 4.55408 106.935C4.55408 109.762 6.76508 111.855 9.78173 111.855C12.7847 111.855 15.0094 109.776 15.0094 106.935C15.0094 104.094 12.7847 102.015 9.78173 102.015ZM9.78173 109.979C8.07597 109.979 6.79239 108.742 6.79239 106.935C6.79239 105.127 8.07597 103.891 9.78173 103.891C11.4875 103.891 12.7711 105.128 12.7711 106.935C12.7711 108.742 11.4875 109.979 9.78173 109.979ZM22.2478 105.889H19.5998V103.931H25.1142V102.177H17.4025V111.691H21.9348C24.3916 111.691 25.7981 110.59 25.7981 108.688C25.797 106.866 24.5544 105.889 22.2478 105.889ZM21.8108 110.061H19.5998V107.506H21.8108C22.9715 107.506 23.5575 107.914 23.5575 108.757C23.5575 109.612 22.9442 110.061 21.8108 110.061ZM40.7733 102.177H38.5759V109.896H35.5729V102.177H33.3756V109.896H30.3589V102.177H28.1616V111.691H40.0234V113.662H42.0705V109.898H40.7733V102.177ZM46.4698 107.723H50.9066V106.01H46.4698V103.945H51.4926V102.177H44.2713V111.691H51.6701V109.924H46.4698V107.723ZM58.7571 103.89C59.713 103.89 60.5175 104.271 61.1593 105.005L62.5795 103.7C61.6782 102.612 60.3002 102.014 58.6479 102.014C55.6722 102.014 53.4612 104.067 53.4612 106.934C53.4612 109.801 55.6722 111.854 58.6343 111.854C60.299 111.854 61.6782 111.256 62.5795 110.155L61.1593 108.85C60.5175 109.597 59.7119 109.978 58.7571 109.978C56.9695 109.978 55.6995 108.727 55.6995 106.934C55.6995 105.141 56.9695 103.89 58.7571 103.89ZM63.6332 103.972H66.6771V111.691H68.8608V103.972H71.9185V102.177H63.6332V103.972ZM80.6168 106.73C81.4634 106.322 81.9687 105.602 81.9687 104.638C81.9687 103.061 80.6578 102.179 78.4468 102.179H73.9963V111.692H78.7051C81.1209 111.692 82.4182 110.672 82.4182 109.015C82.4182 107.858 81.7764 107.07 80.6168 106.73ZM76.1937 103.809H78.2545C79.2103 103.809 79.7156 104.216 79.7156 104.964C79.7156 105.725 79.2103 106.12 78.2545 106.12H76.1937V103.809ZM78.6243 110.061H76.1948V107.656H78.6243C79.6484 107.656 80.1798 108.036 80.1798 108.838C80.1798 109.666 79.6473 110.061 78.6243 110.061ZM89.4107 102.015C86.3941 102.015 84.1831 104.109 84.1831 106.935C84.1831 109.762 86.3941 111.855 89.4107 111.855C92.4137 111.855 94.6384 109.776 94.6384 106.935C94.6384 104.094 92.4137 102.015 89.4107 102.015ZM89.4107 109.979C87.705 109.979 86.4214 108.742 86.4214 106.935C86.4214 105.127 87.705 103.891 89.4107 103.891C91.1165 103.891 92.4001 105.127 92.4001 106.934C92.4001 108.742 91.1165 109.979 89.4107 109.979Z" fill="#E1E6EB"/>
<path fill-rule="evenodd" clip-rule="evenodd" d="M132 28.5718L120.491 17.1179L80.2275 57.19L91.7366 68.6439L103.259 57.1764L114.57 68.4332L132 51.0864L120.689 39.8297L132 28.5718Z" fill="#E4072F"/>
<path fill-rule="evenodd" clip-rule="evenodd" d="M114.686 0L85.9855 28.5605L74.4776 17.1066L45.7391 45.7124L68.7492 68.6122L126.19 11.4471L114.686 0Z" fill="#1A2D40"/>
<path fill-rule="evenodd" clip-rule="evenodd" d="M57.2596 11.3417L45.7869 22.757L34.4713 11.4969L0 45.803L11.509 57.2568L22.9976 45.8234L34.3132 57.0835L68.7652 22.7921L57.2596 11.3417Z" fill="#E1E6EB"/>
</g>
<defs>
<clipPath id="clip0">
<path d="M0 0H132V116H0V0Z" fill="white"/>
</clipPath>
</defs>
</svg>
